<mxfile host="65bd71144e" scale="1" border="10">
    <diagram id="59DvSauhzj3vqoOBRgNi" name="iterator">
        <mxGraphModel dx="1632" dy="886" grid="1" gridSize="10" guides="1" tooltips="1" connect="1" arrows="1" fold="1" page="1" pageScale="1" pageWidth="827" pageHeight="1169" background="#FFFFFF" math="0" shadow="0">
            <root>
                <mxCell id="w9Iu98WscyFDLbroQzuf-0"/>
                <mxCell id="w9Iu98WscyFDLbroQzuf-1" parent="w9Iu98WscyFDLbroQzuf-0"/>
                <mxCell id="Yrwoq0YL18L5McrpzAKP-1" value="std::vector::resize(count)" style="text;strokeColor=#666666;fillColor=#f5f5f5;html=1;fontSize=24;fontStyle=1;verticalAlign=middle;align=center;shadow=0;labelBorderColor=none;fontColor=#333333;" parent="w9Iu98WscyFDLbroQzuf-1" vertex="1">
                    <mxGeometry x="235" y="250" width="305" height="40" as="geometry"/>
                </mxCell>
                <mxCell id="Yrwoq0YL18L5McrpzAKP-21" value="value0" style="rounded=0;whiteSpace=wrap;html=1;shadow=0;labelBorderColor=none;strokeColor=#82b366;fillColor=#d5e8d4;fontColor=#000000;" parent="w9Iu98WscyFDLbroQzuf-1" vertex="1">
                    <mxGeometry x="267.5" y="340" width="80" height="40" as="geometry"/>
                </mxCell>
                <mxCell id="Yrwoq0YL18L5McrpzAKP-22" value="value1" style="rounded=0;whiteSpace=wrap;html=1;shadow=0;labelBorderColor=none;strokeColor=#82b366;fillColor=#d5e8d4;fontColor=#000000;" parent="w9Iu98WscyFDLbroQzuf-1" vertex="1">
                    <mxGeometry x="347.5" y="340" width="80" height="40" as="geometry"/>
                </mxCell>
                <mxCell id="Yrwoq0YL18L5McrpzAKP-24" value="" style="rounded=0;whiteSpace=wrap;html=1;shadow=0;labelBorderColor=none;strokeColor=#666666;fillColor=#f5f5f5;fontColor=#333333;" parent="w9Iu98WscyFDLbroQzuf-1" vertex="1">
                    <mxGeometry x="427.5" y="340" width="80" height="40" as="geometry"/>
                </mxCell>
                <mxCell id="0" value="count &amp;lt; size()" style="text;html=1;align=center;verticalAlign=middle;resizable=0;points=[];autosize=1;strokeColor=#666666;fillColor=#f5f5f5;fontColor=#333333;fontSize=18;" parent="w9Iu98WscyFDLbroQzuf-1" vertex="1">
                    <mxGeometry x="327.5" y="300" width="120" height="30" as="geometry"/>
                </mxCell>
                <mxCell id="47" value="value0" style="rounded=0;whiteSpace=wrap;html=1;shadow=0;labelBorderColor=none;strokeColor=#82b366;fillColor=#d5e8d4;fontColor=#000000;" parent="w9Iu98WscyFDLbroQzuf-1" vertex="1">
                    <mxGeometry x="267.5" y="460" width="80" height="40" as="geometry"/>
                </mxCell>
                <mxCell id="48" value="" style="rounded=0;whiteSpace=wrap;html=1;shadow=0;labelBorderColor=none;strokeColor=#666666;fillColor=#f5f5f5;fontColor=#333333;" parent="w9Iu98WscyFDLbroQzuf-1" vertex="1">
                    <mxGeometry x="347.5" y="460" width="80" height="40" as="geometry"/>
                </mxCell>
                <mxCell id="49" value="" style="shape=flexArrow;endArrow=classic;html=1;exitX=0.375;exitY=1;exitDx=0;exitDy=0;exitPerimeter=0;fillColor=#f5f5f5;strokeColor=#666666;entryX=0.388;entryY=-0.05;entryDx=0;entryDy=0;entryPerimeter=0;" parent="w9Iu98WscyFDLbroQzuf-1" source="Yrwoq0YL18L5McrpzAKP-22" target="48" edge="1">
                    <mxGeometry width="50" height="50" relative="1" as="geometry">
                        <mxPoint x="422.5" y="460" as="sourcePoint"/>
                        <mxPoint x="377.5" y="430" as="targetPoint"/>
                    </mxGeometry>
                </mxCell>
                <mxCell id="50" value="resize(1)" style="text;html=1;align=center;verticalAlign=middle;resizable=0;points=[];autosize=1;strokeColor=#666666;fillColor=#f5f5f5;fontColor=#333333;" parent="w9Iu98WscyFDLbroQzuf-1" vertex="1">
                    <mxGeometry x="347.5" y="400" width="60" height="20" as="geometry"/>
                </mxCell>
                <mxCell id="51" value="" style="rounded=0;whiteSpace=wrap;html=1;shadow=0;labelBorderColor=none;strokeColor=#666666;fillColor=#f5f5f5;fontColor=#333333;" parent="w9Iu98WscyFDLbroQzuf-1" vertex="1">
                    <mxGeometry x="427.5" y="460" width="80" height="40" as="geometry"/>
                </mxCell>
                <mxCell id="71" value="" style="edgeStyle=none;html=1;fontColor=#000000;" edge="1" parent="w9Iu98WscyFDLbroQzuf-1" source="57">
                    <mxGeometry relative="1" as="geometry">
                        <mxPoint x="387.5" y="570" as="targetPoint"/>
                    </mxGeometry>
                </mxCell>
                <mxCell id="57" value="count &amp;gt; size()" style="text;html=1;align=center;verticalAlign=middle;resizable=0;points=[];autosize=1;strokeColor=#666666;fillColor=#f5f5f5;fontColor=#333333;fontSize=18;" parent="w9Iu98WscyFDLbroQzuf-1" vertex="1">
                    <mxGeometry x="327.5" y="520" width="120" height="30" as="geometry"/>
                </mxCell>
                <mxCell id="62" value="value0" style="rounded=0;whiteSpace=wrap;html=1;shadow=0;labelBorderColor=none;strokeColor=#82b366;fillColor=#d5e8d4;fontColor=#000000;" vertex="1" parent="w9Iu98WscyFDLbroQzuf-1">
                    <mxGeometry x="267.5" y="570" width="80" height="40" as="geometry"/>
                </mxCell>
                <mxCell id="63" value="value1" style="rounded=0;whiteSpace=wrap;html=1;shadow=0;labelBorderColor=none;strokeColor=#82b366;fillColor=#d5e8d4;fontColor=#000000;" vertex="1" parent="w9Iu98WscyFDLbroQzuf-1">
                    <mxGeometry x="347.5" y="570" width="80" height="40" as="geometry"/>
                </mxCell>
                <mxCell id="64" value="" style="rounded=0;whiteSpace=wrap;html=1;shadow=0;labelBorderColor=none;strokeColor=#666666;fillColor=#f5f5f5;fontColor=#333333;" vertex="1" parent="w9Iu98WscyFDLbroQzuf-1">
                    <mxGeometry x="427.5" y="570" width="80" height="40" as="geometry"/>
                </mxCell>
                <mxCell id="66" value="value0" style="rounded=0;whiteSpace=wrap;html=1;shadow=0;labelBorderColor=none;strokeColor=#82b366;fillColor=#d5e8d4;fontColor=#000000;" vertex="1" parent="w9Iu98WscyFDLbroQzuf-1">
                    <mxGeometry x="267.5" y="690" width="80" height="40" as="geometry"/>
                </mxCell>
                <mxCell id="68" value="" style="shape=flexArrow;endArrow=classic;html=1;exitX=0.375;exitY=1;exitDx=0;exitDy=0;exitPerimeter=0;fillColor=#f5f5f5;strokeColor=#666666;entryX=0.388;entryY=-0.05;entryDx=0;entryDy=0;entryPerimeter=0;" edge="1" parent="w9Iu98WscyFDLbroQzuf-1" source="63">
                    <mxGeometry width="50" height="50" relative="1" as="geometry">
                        <mxPoint x="422.5" y="690" as="sourcePoint"/>
                        <mxPoint x="378.53999999999996" y="688" as="targetPoint"/>
                    </mxGeometry>
                </mxCell>
                <mxCell id="69" value="resize(1)" style="text;html=1;align=center;verticalAlign=middle;resizable=0;points=[];autosize=1;strokeColor=#666666;fillColor=#f5f5f5;fontColor=#333333;" vertex="1" parent="w9Iu98WscyFDLbroQzuf-1">
                    <mxGeometry x="347.5" y="630" width="60" height="20" as="geometry"/>
                </mxCell>
                <mxCell id="70" value="default_value" style="rounded=0;whiteSpace=wrap;html=1;shadow=0;labelBorderColor=none;strokeColor=#d79b00;fillColor=#ffe6cc;fontColor=#000000;" vertex="1" parent="w9Iu98WscyFDLbroQzuf-1">
                    <mxGeometry x="427.5" y="690" width="80" height="40" as="geometry"/>
                </mxCell>
                <mxCell id="72" value="value1" style="rounded=0;whiteSpace=wrap;html=1;shadow=0;labelBorderColor=none;strokeColor=#82b366;fillColor=#d5e8d4;fontColor=#000000;" vertex="1" parent="w9Iu98WscyFDLbroQzuf-1">
                    <mxGeometry x="347.5" y="690" width="80" height="40" as="geometry"/>
                </mxCell>
            </root>
        </mxGraphModel>
    </diagram>
</mxfile>